<?xml version="1.0" encoding="UTF-8"?>
<svg version="1.1" viewBox="0 0 1252 1292" width="313" height="323" xmlns="http://www.w3.org/2000/svg">
<path transform="translate(0)" d="m0 0h1252v1292h-1252z"/>
<path transform="translate(407,190)" d="m0 0h152l144 1 6 3 3 3v2l4 2v2l4 2 12 13 16 15v2h2l7 8 11 10v2h2l7 8 11 11 6 5 7 8 9 9 2 1v2l4 2v2h2l7 8 7 7 8 7v2h2l7 8 7 7 6 5 7 8 11 11 8 7v2h2l7 8 7 7 8 7v2h2l7 8 7 7 4 3v2h2l7 8 15 15 6 5 7 8 7 7 6 5 7 8 59 59 4 3v2h2l7 8 11 11 6 5 7 8 60 60 8 7-2 4-444 444-2 1h-297l6-7 324-324 8-7 1-1-667-1v-217l27-1h580l57-1-315-315-7-6v-2l-4-2-8-8z" fill="#FFFFFE"/>
</svg>
